# xmcd CD database file
# Copyright (C) 1993-1998 Ti Kan
#
# Track frame offsets:
#     150
#     12500
#     24000
#     36225
#     50150
#     61950
#     76200
#     86500
#     97050
#     109650
#     121500
#     133725
#     147375
#     156975
#     168675
#     185825
#
# Disc length: 2599 seconds
#
# Revision: 0
# Processed by: cddbd v1.4b41PL1 Copyright (c) Steve Scherf et al.
# Submitted via: Clarion 0.9.5
#
DISCID=da0a2510
DTITLE=Various Artist - County Gold 50 Golden Treasures Vol2
DYEAR=1900
DGENRE=
TTITLE0=Crazy
TTITLE1=Ramblin' Rose
TTITLE2=Lonesome 7-7203
TTITLE3=Big bad John
TTITLE4=Foggy mountain breakdown
TTITLE5=Tennessee Waltz
TTITLE6=My last date with you
TTITLE7=Act natually
TTITLE8=Still
TTITLE9=Waterloo
TTITLE10=Dear John
TTITLE11=Almost persuaded
TTITLE12=May the bird of paradise fly up your nose
TTITLE13=Please don't tell me how the story ends
TTITLE14=Take care of business Mr Businessman
TTITLE15=Apartment #9
EXTD=
EXTT0=
EXTT1=
EXTT2=
EXTT3=
EXTT4=
EXTT5=
EXTT6=
EXTT7=
EXTT8=
EXTT9=
EXTT10=
EXTT11=
EXTT12=
EXTT13=
EXTT14=
EXTT15=
PLAYORDER=
